<?xml version="1.0" encoding="utf-8"?>
<!-- Generator: Adobe Illustrator 24.1.0, SVG Export Plug-In . SVG Version: 6.00 Build 0)  -->
<svg version="1.1" id="Layer_1" xmlns="http://www.w3.org/2000/svg" xmlns:xlink="http://www.w3.org/1999/xlink" x="0px" y="0px"
	 viewBox="0 0 36 36" style="enable-background:new 0 0 36 36;" xml:space="preserve">
<style type="text/css">
	.st0{fill:#6EA1F2;}
	.st1{fill:#587FB7;}
	.st2{fill:#E6E6E6;}
	.st3{fill:#FFFFFF;}
	.st4{fill:#B3B3B3;}
</style>
<g>
	<g>
		<path class="st0" d="M28.5,18l6.3,6.5c0.8-2,1.2-4.2,1.2-6.5c0-9.9-8.1-18-18-18S0,8.1,0,18c0,9.7,7.7,17.6,17.3,18L7.5,26
			L28.5,18z"/>
	</g>
	<path class="st1" d="M34.8,24.5L28.5,18l-21,8l9.8,10c0.2,0,0.4,0,0.7,0C25.6,36,32.2,31.2,34.8,24.5z"/>
</g>
<g>
	<polygon class="st2" points="28.5,18 16.5,19.7 7.5,21 10.5,18 	"/>
	<polygon class="st3" points="28.5,18 16.5,22.6 12.8,24 7.5,26 7.5,21 16.5,19.7 	"/>
	<polygon class="st4" points="28.5,18 10.5,18 10.5,18 7.5,15 16.5,16.3 	"/>
	<polygon class="st3" points="28.5,18 16.5,16.3 7.5,15 7.5,10 12.8,12 16.5,13.4 	"/>
</g>
</svg>
